<svg version="1.1" xmlns="http://www.w3.org/2000/svg" width="219" height="152">

<path d="M0 0 C72.27 0 144.54 0 219 0 C219 50.16 219 100.32 219 152 C146.73 152 74.46 152 0 152 C0 101.84 0 51.68 0 0 Z M21.125 13.08984375 C3.3299946 36.96216126 0.80265079 69.37086587 4.68359375 98.08984375 C7.47783186 114.52907279 13.6714896 132.9884019 27.1875 143.6875 C32.12409003 147.16139669 37.26962477 148.24811861 43.23492432 148.27415466 C45.08093987 148.28911736 45.08093987 148.28911736 46.96424866 148.30438232 C48.31503283 148.30527798 49.66581717 148.30594162 51.01660156 148.30639648 C52.4495232 148.31402417 53.88244077 148.32245272 55.31535339 148.33161926 C59.19778511 148.35351267 63.08013809 148.36235633 66.96262455 148.36744571 C69.39197019 148.37109577 71.82129541 148.37733923 74.25063324 148.3844471 C82.73659669 148.40892489 91.22249916 148.42198961 99.70849609 148.42553711 C107.60090109 148.42916981 115.49291661 148.45905018 123.38520265 148.50094169 C130.17524608 148.53571059 136.96516086 148.5510867 143.75529265 148.55178314 C147.80445504 148.5525738 151.85322047 148.56121404 155.90229034 148.58978081 C159.71430835 148.61607485 163.5256035 148.61810447 167.33767128 148.60212517 C168.72996671 148.60031954 170.1223048 148.60692081 171.5145092 148.62294388 C181.43704527 148.73010309 188.53159066 147.23670692 196.4453125 141.10546875 C212.46147172 122.81724973 216.43243526 98.88425333 216.375 75.375 C216.37478851 74.57730194 216.37457703 73.77960388 216.37435913 72.95773315 C216.34319017 61.19226424 215.77072144 50.23822859 212 39 C211.62617188 37.824375 211.25234375 36.64875 210.8671875 35.4375 C206.719232 23.57050148 199.83416527 10.82044146 188.22070312 4.92074585 C181.96315496 2.21019637 175.8080427 2.4551971 169.0859375 2.51416016 C167.70021202 2.51201037 166.31448832 2.50812687 164.92877197 2.50265503 C161.18897023 2.49301771 157.44965097 2.50819434 153.70990753 2.52856112 C149.78235999 2.54622549 145.85482527 2.54260521 141.92724609 2.5418396 C135.33357754 2.54370854 128.74009386 2.56101659 122.14648438 2.58837891 C114.54097786 2.61982532 106.93567358 2.63037481 99.33010674 2.6289078 C91.20748729 2.62755305 83.084945 2.64145621 74.96234894 2.65980101 C72.63299767 2.66404792 70.30365898 2.66548121 67.9743042 2.66627884 C64.30357314 2.66829965 60.63300937 2.68060557 56.96233368 2.70061111 C54.98534358 2.70916427 53.00831914 2.70812457 51.03131104 2.70672607 C39.33531752 2.79027029 29.31142285 3.96539328 21.125 13.08984375 Z " fill="#FEFEFE" transform="translate(0,0)" data-index="1" style="visibility: hidden; opacity: 1;"></path>
<path d="M0 0 C1.051875 -0.00773437 2.10375 -0.01546875 3.1875 -0.0234375 C6.39489777 0.43094385 7.0638642 0.87136331 9 3.375 C9.37752342 5.35997009 9.37752342 5.35997009 9.38095093 7.66381836 C9.3894104 8.53867889 9.39786987 9.41353943 9.40658569 10.31491089 C9.400513 11.27188873 9.39444031 12.22886658 9.38818359 13.21484375 C9.39344055 14.22483429 9.39869751 15.23482483 9.40411377 16.27542114 C9.41734123 19.6212704 9.40856576 22.96664572 9.3984375 26.3125 C9.40045744 28.63273205 9.40336821 30.95296349 9.40713501 33.27319336 C9.4115621 38.13889605 9.40511481 43.00443366 9.39111328 47.87011719 C9.37402136 54.11497639 9.38386046 60.35944882 9.40183067 66.60429382 C9.41265803 71.39631071 9.40922696 76.18823551 9.4014473 80.98025513 C9.39944239 83.28321376 9.40191468 85.58618068 9.40888596 87.88912964 C9.41648304 91.10469795 9.40492025 94.31963509 9.38818359 97.53515625 C9.39425629 98.49213409 9.40032898 99.44911194 9.40658569 100.43508911 C9.39812622 101.30994965 9.38966675 102.18481018 9.38095093 103.08618164 C9.37981985 103.84645157 9.37868877 104.6067215 9.37752342 105.39002991 C8.89350216 107.9349521 8.04316509 108.82241676 6 110.375 C3.16053772 110.76940918 3.16053772 110.76940918 -0.33569336 110.79492188 C-2.29804176 110.81878967 -2.29804176 110.81878967 -4.30003357 110.84313965 C-5.72996975 110.84440687 -7.15990725 110.84458379 -8.58984375 110.84375 C-10.05571282 110.85085044 -11.52157909 110.85854927 -12.98744202 110.86682129 C-16.05998459 110.88027116 -19.1322702 110.88183279 -22.20483398 110.87597656 C-26.14068563 110.87008046 -30.0753037 110.90066365 -34.01091671 110.94109344 C-37.03844332 110.96695511 -40.06567231 110.96984934 -43.09329414 110.96620178 C-44.54417585 110.96789458 -45.99507107 110.97755273 -47.44584465 110.99534607 C-49.47541363 111.01749825 -51.50527334 111.00463644 -53.53491211 110.99023438 C-55.26673988 110.99331604 -55.26673988 110.99331604 -57.03355408 110.99645996 C-60 110.375 -60 110.375 -62.37086487 107.98132324 C-64.0567304 105.28424155 -64.54362065 103.94773415 -64.5 100.8125 C-64.5103125 100.06871094 -64.520625 99.32492188 -64.53125 98.55859375 C-63.78896541 95.50758575 -62.40048206 94.36010638 -60 92.375 C-57.58282471 91.89398193 -57.58282471 91.89398193 -54.86425781 91.92089844 C-53.33312347 91.92135162 -53.33312347 91.92135162 -51.77105713 91.92181396 C-50.67613953 91.94245911 -49.58122192 91.96310425 -48.453125 91.984375 C-47.3267865 91.99003479 -46.200448 91.99569458 -45.03997803 92.00152588 C-41.44288618 92.02391455 -37.84679074 92.07411787 -34.25 92.125 C-31.8112123 92.14506167 -29.37240899 92.16331302 -26.93359375 92.1796875 C-20.9553453 92.22378789 -14.97784158 92.2928347 -9 92.375 C-9 86.435 -9 80.495 -9 74.375 C-10.96791504 74.4064209 -10.96791504 74.4064209 -12.97558594 74.43847656 C-17.84331344 74.5108797 -22.71099335 74.55680113 -27.57910156 74.59472656 C-29.68595382 74.61484126 -31.79275025 74.64213667 -33.89941406 74.67675781 C-36.92787447 74.72528168 -39.95559678 74.74797016 -42.984375 74.765625 C-44.39707672 74.79659271 -44.39707672 74.79659271 -45.83831787 74.82818604 C-52.36460659 74.8304251 -52.36460659 74.8304251 -55.59277344 72.51660156 C-57.37055523 69.81106688 -57.53541732 68.0979763 -57.5 64.875 C-57.5103125 63.9365625 -57.520625 62.998125 -57.53125 62.03125 C-56.81440766 58.44703828 -55.98640574 57.51553865 -53 55.375 C-49.65973407 54.81301962 -46.3630781 54.91031074 -42.984375 54.984375 C-42.01340881 54.99003479 -41.04244263 54.99569458 -40.04205322 55.00152588 C-36.94419831 55.02389689 -33.84750467 55.07409527 -30.75 55.125 C-28.64845422 55.14506403 -26.54689028 55.16331497 -24.4453125 55.1796875 C-19.2964283 55.2237642 -14.14841097 55.29279742 -9 55.375 C-9.00666183 54.73020187 -9.01332367 54.08540375 -9.02018738 53.42106628 C-9.08645798 46.72176083 -9.13176618 40.02254819 -9.16479492 33.32299805 C-9.17989944 30.82133198 -9.20038429 28.31969247 -9.22631836 25.81811523 C-9.26262775 22.22633316 -9.27970975 18.63490059 -9.29296875 15.04296875 C-9.31619453 13.36003975 -9.31619453 13.36003975 -9.33988953 11.64311218 C-9.34011612 10.60225967 -9.34034271 9.56140717 -9.34057617 8.48901367 C-9.34723801 7.57190109 -9.35389984 6.65478851 -9.36076355 5.70988464 C-9 3.375 -9 3.375 -7.65449524 1.58027649 C-5.15358409 -0.24160207 -3.05006637 -0.02242696 0 0 Z " fill="#8C52FE" transform="translate(150,29.625)" data-index="2" style="visibility: visible; opacity: 1;"></path>
<path d="M0 0 C1.28813599 -0.01260864 2.57627197 -0.02521729 3.90344238 -0.03820801 C5.30607653 -0.03104819 6.70870569 -0.0228442 8.11132812 -0.01367188 C9.55334739 -0.01636743 10.99536488 -0.02025038 12.43737793 -0.02526855 C15.45696345 -0.03116076 18.47607511 -0.02261036 21.49560547 -0.00390625 C25.36294015 0.01888407 29.22916448 0.00575937 33.09645844 -0.01819611 C36.07338807 -0.03266213 39.05005518 -0.02804461 42.0269928 -0.01768494 C43.45272453 -0.01501983 44.87848022 -0.01827989 46.30418396 -0.02760315 C48.29783665 -0.03777985 50.29157309 -0.01951376 52.28515625 0 C53.418927 0.00318237 54.55269775 0.00636475 55.7208252 0.00964355 C59.2860238 0.62943847 60.46395685 1.67980175 62.64257812 4.51757812 C63.20898438 7.17382813 63.20898438 7.17382813 63.20507812 10.01757812 C63.22699219 10.95601562 63.24890625 11.89445312 63.27148438 12.86132812 C62.64257812 15.51757812 62.64257812 15.51757812 60.81738281 17.65917969 C56.04398592 20.45332742 51.64823537 20.01320795 46.21679688 19.90820312 C45.11406937 19.90254333 44.01134186 19.89688354 42.87519836 19.89105225 C39.3597132 19.86869563 35.84525426 19.81849834 32.33007812 19.76757812 C29.94402516 19.7475123 27.55795618 19.72926168 25.171875 19.71289062 C19.32838177 19.6688328 13.48565383 19.59980815 7.64257812 19.51757812 C7.64257812 25.45757812 7.64257812 31.39757813 7.64257812 37.51757812 C8.92422852 37.49663086 10.20587891 37.47568359 11.52636719 37.45410156 C16.28227563 37.38169147 21.03813537 37.33577453 25.79443359 37.29785156 C27.85278518 37.27773843 29.91107964 37.25044415 31.96923828 37.21582031 C34.92820326 37.16728929 37.88641274 37.14460647 40.84570312 37.12695312 C41.76563049 37.10630798 42.68555786 37.08566284 43.63336182 37.06439209 C50.01514918 37.06215166 50.01514918 37.06215166 53.22167969 39.38964844 C54.93411216 41.9541779 55.17999759 43.44918234 55.14257812 46.51757812 C55.15804687 47.78601562 55.15804687 47.78601562 55.17382812 49.08007812 C54.42956324 52.49494056 53.48801858 53.45218268 50.64257812 55.51757812 C47.37508238 56.07923436 44.15246834 55.98241402 40.84570312 55.90820312 C39.89693298 55.90254333 38.94816284 55.89688354 37.97064209 55.89105225 C34.94410477 55.86868422 31.91875684 55.8184867 28.89257812 55.76757812 C26.83920982 55.74751369 24.78582294 55.72926282 22.73242188 55.71289062 C17.70201657 55.66881793 12.67249891 55.59978704 7.64257812 55.51757812 C7.65146057 56.16015564 7.66034302 56.80273315 7.66949463 57.46478271 C7.75793461 64.14798087 7.81829866 70.83101303 7.86230469 77.51464844 C7.88242976 80.00950878 7.90973264 82.5043219 7.94433594 84.99902344 C7.99281269 88.58345181 8.01553833 92.16725697 8.03320312 95.75195312 C8.05384827 96.86874451 8.07449341 97.98553589 8.09576416 99.13616943 C8.09606628 100.17694641 8.09636841 101.21772339 8.09667969 102.29003906 C8.10556213 103.20493103 8.11444458 104.119823 8.12359619 105.06243896 C7.49037407 108.29443488 6.17394364 109.48115243 3.64257812 111.51757812 C1.20507812 112.08398438 1.20507812 112.08398438 -1.35742188 112.08007812 C-2.20304687 112.10199219 -3.04867187 112.12390625 -3.91992188 112.14648438 C-7.55305517 111.20908941 -8.40828433 109.70815025 -10.35742188 106.51757812 C-10.9447546 103.22846351 -10.904043 99.98423979 -10.875 96.65014648 C-10.88200928 95.66097733 -10.88901855 94.67180817 -10.89624023 93.65266418 C-10.91382675 90.38729678 -10.90219559 87.12279789 -10.88867188 83.85742188 C-10.89136637 81.58728367 -10.89524844 79.31714658 -10.90026855 77.04701233 C-10.90616433 72.29156495 -10.89759696 67.53641827 -10.87890625 62.78100586 C-10.85610404 56.68192363 -10.86924786 50.58354497 -10.89319611 44.48448849 C-10.90764062 39.79792465 -10.90305443 35.11152802 -10.89268494 30.42495918 C-10.89001462 28.17585734 -10.89329809 25.92674036 -10.90260315 23.67765617 C-10.91274766 20.53656583 -10.89729674 17.39662018 -10.875 14.25561523 C-10.88309692 13.32407623 -10.89119385 12.39253723 -10.89953613 11.43276978 C-10.84889351 7.58711796 -10.81172903 5.23342818 -8.72241211 1.94129944 C-5.64448364 0.08839016 -3.5889147 0.0100737 0 0 Z " fill="#8C52FE" transform="translate(70.357421875,9.482421875)" data-index="3" style="visibility: visible; opacity: 1;"></path>
</svg>